<?xml version="1.0" standalone="yes"?>

<svg version="1.1" viewBox="0.0 0.0 1123.0 438.0" fill="none" stroke="none" stroke-linecap="square" stroke-miterlimit="10" xmlns="http://www.w3.org/2000/svg" xmlns:xlink="http://www.w3.org/1999/xlink"><clipPath id="p.0"><path d="m0 0l1123.0 0l0 438.0l-1123.0 0l0 -438.0z" clip-rule="nonzero"></path></clipPath><g clip-path="url(#p.0)"><path fill="#000000" fill-opacity="0.0" d="m0 0l1123.9318 0l0 438.25986l-1123.9318 0z" fill-rule="nonzero"></path><path fill="#00ffff" d="m791.0236 139.17061l0 0c0 -49.37513 40.02643 -89.40158 89.40155 -89.40158l0 0c23.710815 0 46.45044 9.419067 63.21649 26.18512c16.766052 16.766045 26.18512 39.50569 26.18512 63.21646l0 0c0 49.375122 -40.02643 89.40158 -89.40161 89.40158l0 0c-49.375122 0 -89.40155 -40.02646 -89.40155 -89.40158z" fill-rule="nonzero"></path><path stroke="#000000" stroke-width="1.0" stroke-linejoin="round" stroke-linecap="butt" stroke-dasharray="1.0,3.0" d="m791.0236 139.17061l0 0c0 -49.37513 40.02643 -89.40158 89.40155 -89.40158l0 0c23.710815 0 46.45044 9.419067 63.21649 26.18512c16.766052 16.766045 26.18512 39.50569 26.18512 63.21646l0 0c0 49.375122 -40.02643 89.40158 -89.40161 89.40158l0 0c-49.375122 0 -89.40155 -40.02646 -89.40155 -89.40158z" fill-rule="nonzero"></path><path fill="#000000" d="m831.8181 139.2856l-3.578125 0l0 2.796875l4.125 0l0 0.828125l-5.1875 0l0 -7.828125l5.125 0l0 0.84375l-4.0625 0l0 2.53125l3.578125 0l0 0.828125zm2.7907715 -3.59375l0 1.40625l1.09375 0l0 0.78125l-1.09375 0l0 3.53125q0 0.40625 0.15625 0.578125q0.171875 0.171875 0.453125 0.171875q0.09375 0 0.203125 -0.015625q0.109375 -0.03125 0.203125 -0.0625l0.125 0.71875q-0.109375 0.09375 -0.34375 0.15625q-0.21875 0.0625 -0.453125 0.0625q-0.640625 0 -1.03125 -0.390625q-0.375 -0.390625 -0.375 -1.21875l0 -3.53125l-0.921875 0l0 -0.78125l0.921875 0l0 -1.40625l1.0625 0zm3.340149 2.1875q0.296875 -0.421875 0.734375 -0.65625q0.4375 -0.234375 0.96875 -0.234375q0.9375 0 1.453125 0.5625q0.515625 0.5625 0.515625 1.71875l0 3.640625l-1.0625 0l0 -3.65625q0 -0.71875 -0.3125 -1.0625q-0.296875 -0.34375 -0.90625 -0.34375q-0.453125 0 -0.8125 0.21875q-0.34375 0.203125 -0.578125 0.546875l0 4.296875l-1.0625 0l0 -8.375l1.0625 0l0 3.34375zm7.4159546 5.140625q-1.21875 0 -1.9375 -0.796875q-0.71875 -0.8125 -0.71875 -2.109375l0 -0.234375q0 -1.234375 0.734375 -2.0625q0.75 -0.828125 1.75 -0.828125q1.171875 0 1.765625 0.71875q0.609375 0.703125 0.609375 1.890625l0 0.65625l-3.765625 0l-0.015625 0.03125q0.015625 0.828125 0.421875 1.375q0.40625 0.53125 1.15625 0.53125q0.53125 0 0.9375 -0.140625q0.40625 -0.15625 0.703125 -0.4375l0.40625 0.6875q-0.3125 0.3125 -0.828125 0.515625q-0.5 0.203125 -1.21875 0.203125zm-0.171875 -5.203125q-0.53125 0 -0.90625 0.453125q-0.375 0.453125 -0.453125 1.125l0 0.03125l2.6875 0l0 -0.140625q0 -0.625 -0.34375 -1.046875q-0.328125 -0.421875 -0.984375 -0.421875zm6.135132 0.21875l-0.546875 -0.03125q-0.40625 0 -0.703125 0.203125q-0.28125 0.1875 -0.4375 0.546875l0 4.15625l-1.0625 0l0 -5.8125l0.953125 0l0.09375 0.84375q0.25 -0.453125 0.609375 -0.703125q0.359375 -0.25 0.84375 -0.25q0.109375 0 0.21875 0.03125q0.109375 0.015625 0.171875 0.03125l-0.140625 0.984375zm3.324524 4.984375q-1.21875 0 -1.9375 -0.796875q-0.71875 -0.8125 -0.71875 -2.109375l0 -0.234375q0 -1.234375 0.734375 -2.0625q0.75 -0.828125 1.75 -0.828125q1.171875 0 1.765625 0.71875q0.609375 0.703125 0.609375 1.890625l0 0.65625l-3.765625 0l-0.015625 0.03125q0.015625 0.828125 0.421875 1.375q0.40625 0.53125 1.15625 0.53125q0.53125 0 0.9375 -0.140625q0.40625 -0.15625 0.703125 -0.4375l0.40625 0.6875q-0.3125 0.3125 -0.828125 0.515625q-0.5 0.203125 -1.21875 0.203125zm-0.171875 -5.203125q-0.53125 0 -0.90625 0.453125q-0.375 0.453125 -0.453125 1.125l0 0.03125l2.6875 0l0 -0.140625q0 -0.625 -0.34375 -1.046875q-0.328125 -0.421875 -0.984375 -0.421875zm7.072632 4.234375q-0.265625 0.46875 -0.703125 0.71875q-0.421875 0.25 -0.984375 0.25q-0.953125 0 -1.484375 -0.59375q-0.53125 -0.609375 -0.53125 -1.90625l0 -3.421875l1.0625 0l0 3.4375q0 0.9375 0.265625 1.28125q0.28125 0.34375 0.859375 0.34375q0.5625 0 0.921875 -0.21875q0.375 -0.234375 0.5625 -0.65625l0 -4.1875l1.0625 0l0 5.8125l-0.953125 0l-0.078125 -0.859375zm3.3222046 -4.953125l0.0625 0.765625q0.296875 -0.421875 0.734375 -0.640625q0.4375 -0.234375 1.015625 -0.234375q0.578125 0 0.984375 0.28125q0.421875 0.265625 0.640625 0.796875q0.265625 -0.5 0.71875 -0.78125q0.453125 -0.296875 1.046875 -0.296875q0.890625 0 1.40625 0.609375q0.515625 0.609375 0.515625 1.84375l0 3.46875l-1.0625 0l0 -3.484375q0 -0.859375 -0.296875 -1.21875q-0.28125 -0.359375 -0.875 -0.359375q-0.546875 0 -0.890625 0.375q-0.328125 0.375 -0.375 0.953125l0 0.046875l0 3.6875l-1.0625 0l0 -3.484375q0 -0.8125 -0.3125 -1.1875q-0.296875 -0.390625 -0.875 -0.390625q-0.484375 0 -0.796875 0.203125q-0.296875 0.203125 -0.46875 0.5625l0 4.296875l-1.0625 0l0 -5.8125l0.953125 0zm15.83728 2.359375l-3.5625 0l0 3.453125l-1.0625 0l0 -7.828125l5.171875 0l0 0.84375l-4.109375 0l0 2.6875l3.5625 0l0 0.84375zm1.1293335 0.5q0 -1.296875 0.703125 -2.125q0.703125 -0.84375 1.890625 -0.84375q1.21875 0 1.90625 0.84375q0.703125 0.828125 0.703125 2.125l0 0.109375q0 1.296875 -0.703125 2.125q-0.6875 0.828125 -1.890625 0.828125q-1.203125 0 -1.90625 -0.828125q-0.703125 -0.828125 -0.703125 -2.125l0 -0.109375zm1.0625 0.109375q0 0.921875 0.390625 1.53125q0.390625 0.59375 1.15625 0.59375q0.765625 0 1.15625 -0.59375q0.390625 -0.609375 0.390625 -1.53125l0 -0.109375q0 -0.921875 -0.40625 -1.53125q-0.390625 -0.609375 -1.15625 -0.609375q-0.75 0 -1.140625 0.609375q-0.390625 0.609375 -0.390625 1.53125l0 0.109375zm8.93158 1.984375q-0.265625 0.46875 -0.703125 0.71875q-0.421875 0.25 -0.984375 0.25q-0.953125 0 -1.484375 -0.59375q-0.53125 -0.609375 -0.53125 -1.90625l0 -3.421875l1.0625 0l0 3.4375q0 0.9375 0.265625 1.28125q0.28125 0.34375 0.859375 0.34375q0.5625 0 0.921875 -0.21875q0.375 -0.234375 0.5625 -0.65625l0 -4.1875l1.0625 0l0 5.8125l-0.953125 0l-0.078125 -0.859375zm3.3222046 -4.953125l0.0625 0.859375q0.296875 -0.453125 0.734375 -0.703125q0.4375 -0.265625 1.0 -0.265625q0.9375 0 1.453125 0.5625q0.515625 0.546875 0.515625 1.6875l0 3.671875l-1.0625 0l0 -3.640625q0 -0.78125 -0.3125 -1.09375q-0.296875 -0.328125 -0.90625 -0.328125q-0.46875 0 -0.828125 0.21875q-0.34375 0.21875 -0.546875 0.609375l0 4.234375l-1.0625 0l0 -5.8125l0.953125 0zm4.8690796 3.015625q0 -1.40625 0.59375 -2.265625q0.59375 -0.859375 1.671875 -0.859375q0.515625 0 0.90625 0.1875q0.40625 0.1875 0.6875 0.546875l0 -3.1875l1.046875 0l0 8.375l-0.859375 0l-0.125 -0.71875q-0.28125 0.40625 -0.703125 0.625q-0.40625 0.203125 -0.953125 0.203125q-1.0625 0 -1.671875 -0.765625q-0.59375 -0.765625 -0.59375 -2.03125l0 -0.109375zm1.046875 0.109375q0 0.875 0.359375 1.40625q0.359375 0.53125 1.125 0.53125q0.46875 0 0.78125 -0.203125q0.328125 -0.21875 0.546875 -0.609375l0 -2.71875q-0.21875 -0.359375 -0.546875 -0.5625q-0.3125 -0.21875 -0.765625 -0.21875q-0.765625 0 -1.140625 0.640625q-0.359375 0.625 -0.359375 1.625l0 0.109375zm8.822205 2.6875q-0.0625 -0.265625 -0.09375 -0.46875q-0.015625 -0.203125 -0.03125 -0.40625q-0.296875 0.421875 -0.78125 0.703125q-0.46875 0.28125 -1.015625 0.28125q-0.90625 0 -1.390625 -0.453125q-0.46875 -0.46875 -0.46875 -1.296875q0 -0.828125 0.671875 -1.296875q0.6875 -0.46875 1.84375 -0.46875l1.140625 0l0 -0.578125q0 -0.5 -0.3125 -0.796875q-0.3125 -0.3125 -0.875 -0.3125q-0.515625 0 -0.84375 0.265625q-0.3125 0.265625 -0.3125 0.625l-1.0 0l-0.015625 -0.03125q-0.03125 -0.625 0.59375 -1.15625q0.640625 -0.53125 1.640625 -0.53125q0.984375 0 1.578125 0.5q0.609375 0.5 0.609375 1.453125l0 2.796875q0 0.3125 0.03125 0.609375q0.03125 0.28125 0.125 0.5625l-1.09375 0zm-1.765625 -0.78125q0.578125 0 1.03125 -0.28125q0.46875 -0.296875 0.609375 -0.6875l0 -0.9375l-1.1875 0q-0.640625 0 -1.03125 0.328125q-0.375 0.3125 -0.375 0.75q0 0.390625 0.234375 0.609375q0.25 0.21875 0.71875 0.21875zm5.4526367 -6.4375l0 1.40625l1.09375 0l0 0.78125l-1.09375 0l0 3.53125q0 0.40625 0.15625 0.578125q0.171875 0.171875 0.453125 0.171875q0.09375 0 0.203125 -0.015625q0.109375 -0.03125 0.203125 -0.0625l0.125 0.71875q-0.109375 0.09375 -0.34375 0.15625q-0.21875 0.0625 -0.453125 0.0625q-0.640625 0 -1.03125 -0.390625q-0.375 -0.390625 -0.375 -1.21875l0 -3.53125l-0.921875 0l0 -0.78125l0.921875 0l0 -1.40625l1.0625 0zm3.418274 7.21875l-1.046875 0l0 -5.8125l1.046875 0l0 5.8125zm0 -7.296875l-1.046875 0l0 -1.078125l1.046875 0l0 1.078125zm1.2942505 4.34375q0 -1.296875 0.703125 -2.125q0.703125 -0.84375 1.890625 -0.84375q1.21875 0 1.90625 0.84375q0.703125 0.828125 0.703125 2.125l0 0.109375q0 1.296875 -0.703125 2.125q-0.6875 0.828125 -1.890625 0.828125q-1.203125 0 -1.90625 -0.828125q-0.703125 -0.828125 -0.703125 -2.125l0 -0.109375zm1.0625 0.109375q0 0.921875 0.390625 1.53125q0.390625 0.59375 1.15625 0.59375q0.765625 0 1.15625 -0.59375q0.390625 -0.609375 0.390625 -1.53125l0 -0.109375q0 -0.921875 -0.40625 -1.53125q-0.390625 -0.609375 -1.15625 -0.609375q-0.75 0 -1.140625 0.609375q-0.390625 0.609375 -0.390625 1.53125l0 0.109375zm6.1972046 -2.96875l0.0625 0.859375q0.296875 -0.453125 0.734375 -0.703125q0.4375 -0.265625 1.0 -0.265625q0.9375 0 1.453125 0.5625q0.515625 0.546875 0.515625 1.6875l0 3.671875l-1.0625 0l0 -3.640625q0 -0.78125 -0.3125 -1.09375q-0.296875 -0.328125 -0.90625 -0.328125q-0.46875 0 -0.828125 0.21875q-0.34375 0.21875 -0.546875 0.609375l0 4.234375l-1.0625 0l0 -5.8125l0.953125 0z" fill-rule="nonzero"></path><path fill="#00ff00" d="m471.4882 139.17061l0 0c0 -49.37513 40.02646 -89.40158 89.40158 -89.40158l0 0c23.710754 0 46.45044 9.419067 63.21643 26.18512c16.766052 16.766045 26.18512 39.50569 26.18512 63.21646l0 0c0 49.375122 -40.02643 89.40158 -89.40155 89.40158l0 0c-49.375122 0 -89.40158 -40.02646 -89.40158 -89.40158z" fill-rule="nonzero"></path><path stroke="#000000" stroke-width="1.0" stroke-linejoin="round" stroke-linecap="butt" stroke-dasharray="1.0,3.0" d="m471.4882 139.17061l0 0c0 -49.37513 40.02646 -89.40158 89.40158 -89.40158l0 0c23.710754 0 46.45044 9.419067 63.21643 26.18512c16.766052 16.766045 26.18512 39.50569 26.18512 63.21646l0 0c0 49.375122 -40.02643 89.40158 -89.40155 89.40158l0 0c-49.375122 0 -89.40158 -40.02646 -89.40158 -89.40158z" fill-rule="nonzero"></path><path fill="#000000" d="m548.40784 142.08247l5.03125 0l0 0.828125l-5.03125 0l0 -0.828125zm0.453125 -3.640625l4.078125 0l0 0.828125l-4.078125 0l0 -0.828125zm-0.4375 -3.359375l4.953125 0l0 0.84375l-4.953125 0l0 -0.84375zm7.3377686 7.828125l-1.046875 0l0 -8.375l1.046875 0l0 8.375zm5.1223755 0q-0.0625 -0.265625 -0.09375 -0.46875q-0.015625 -0.203125 -0.03125 -0.40625q-0.296875 0.421875 -0.78125 0.703125q-0.46875 0.28125 -1.015625 0.28125q-0.90625 0 -1.390625 -0.453125q-0.46875 -0.46875 -0.46875 -1.296875q0 -0.828125 0.671875 -1.296875q0.6875 -0.46875 1.84375 -0.46875l1.140625 0l0 -0.578125q0 -0.5 -0.3125 -0.796875q-0.3125 -0.3125 -0.875 -0.3125q-0.515625 0 -0.84375 0.265625q-0.3125 0.265625 -0.3125 0.625l-1.0 0l-0.015625 -0.03125q-0.03125 -0.625 0.59375 -1.15625q0.640625 -0.53125 1.640625 -0.53125q0.984375 0 1.578125 0.5q0.609375 0.5 0.609375 1.453125l0 2.796875q0 0.3125 0.03125 0.609375q0.03125 0.28125 0.125 0.5625l-1.09375 0zm-1.765625 -0.78125q0.578125 0 1.03125 -0.28125q0.46875 -0.296875 0.609375 -0.6875l0 -0.9375l-1.1875 0q-0.640625 0 -1.03125 0.328125q-0.375 0.3125 -0.375 0.75q0 0.390625 0.234375 0.609375q0.25 0.21875 0.71875 0.21875zm9.015076 -1.90625q0 1.265625 -0.609375 2.03125q-0.609375 0.765625 -1.65625 0.765625q-0.578125 0 -1.0 -0.21875q-0.421875 -0.21875 -0.703125 -0.65625l-0.125 0.765625l-0.875 0l0 -8.375l1.0625 0l0 3.25q0.265625 -0.390625 0.671875 -0.59375q0.40625 -0.203125 0.953125 -0.203125q1.078125 0 1.671875 0.859375q0.609375 0.859375 0.609375 2.265625l0 0.109375zm-1.0625 -0.109375q0 -1.0 -0.375 -1.625q-0.359375 -0.640625 -1.109375 -0.640625q-0.484375 0 -0.828125 0.25q-0.328125 0.234375 -0.53125 0.640625l0 2.515625q0.203125 0.421875 0.53125 0.671875q0.328125 0.234375 0.84375 0.234375q0.734375 0 1.09375 -0.53125q0.375 -0.53125 0.375 -1.40625l0 -0.109375zm5.5253296 1.25q0 -0.34375 -0.265625 -0.5625q-0.265625 -0.234375 -1.0 -0.40625q-1.0625 -0.21875 -1.59375 -0.609375q-0.53125 -0.40625 -0.53125 -1.09375q0 -0.703125 0.59375 -1.203125q0.609375 -0.5 1.578125 -0.5q1.015625 0 1.609375 0.53125q0.59375 0.515625 0.578125 1.265625l-0.015625 0.03125l-1.015625 0q0 -0.390625 -0.328125 -0.6875q-0.3125 -0.3125 -0.828125 -0.3125q-0.5625 0 -0.84375 0.25q-0.265625 0.25 -0.265625 0.59375q0 0.34375 0.234375 0.546875q0.234375 0.203125 0.984375 0.359375q1.09375 0.234375 1.625 0.640625q0.546875 0.40625 0.546875 1.09375q0 0.765625 -0.625 1.25q-0.625 0.46875 -1.640625 0.46875q-1.109375 0 -1.75 -0.5625q-0.640625 -0.5625 -0.609375 -1.3125l0.015625 -0.03125l1.015625 0q0.03125 0.5625 0.421875 0.828125q0.390625 0.25 0.90625 0.25q0.5625 0 0.875 -0.21875q0.328125 -0.234375 0.328125 -0.609375z" fill-rule="nonzero"></path><path fill="#000000" fill-opacity="0.0" d="m791.0236 139.17061l-140.72443 0" fill-rule="nonzero"></path><path stroke="#000000" stroke-width="1.0" stroke-linejoin="round" stroke-linecap="butt" stroke-dasharray="1.0,3.0" d="m791.0236 139.17061l-140.72443 0" fill-rule="nonzero"></path><path fill="#00ffff" d="m14.370079 287.8189l28.346458 0l0 23.496063l-28.346458 0z" fill-rule="nonzero"></path><path stroke="#000000" stroke-width="1.0" stroke-linejoin="round" stroke-linecap="butt" d="m14.370079 287.8189l28.346458 0l0 23.496063l-28.346458 0z" fill-rule="nonzero"></path><path fill="#00ff00" d="m14.370079 326.09186l28.346458 0l0 23.496063l-28.346458 0z" fill-rule="nonzero"></path><path stroke="#000000" stroke-width="1.0" stroke-linejoin="round" stroke-linecap="butt" d="m14.370079 326.09186l28.346458 0l0 23.496063l-28.346458 0z" fill-rule="nonzero"></path><path fill="#000000" fill-opacity="0.0" d="m5.4435697 243.7979l157.38583 0l0 40.56694l-157.38583 0z" fill-rule="nonzero"></path><path fill="#666666" d="m17.22482 268.1579l-1.53125 0l0 -12.1875l1.53125 0l0 12.1875zm5.875 0.171875q-1.765625 0 -2.8125 -1.171875q-1.03125 -1.1875 -1.03125 -3.0625l0 -0.34375q0 -1.8125 1.0625 -3.0q1.078125 -1.203125 2.546875 -1.203125q1.71875 0 2.59375 1.03125q0.875 1.03125 0.875 2.75l0 0.953125l-5.484375 0l-0.03125 0.046875q0.03125 1.21875 0.625 2.0q0.59375 0.78125 1.65625 0.78125q0.78125 0 1.375 -0.21875q0.59375 -0.21875 1.015625 -0.609375l0.609375 1.0q-0.453125 0.4375 -1.203125 0.75q-0.734375 0.296875 -1.796875 0.296875zm-0.234375 -7.578125q-0.765625 0 -1.3125 0.65625q-0.546875 0.65625 -0.671875 1.640625l0.015625 0.03125l3.890625 0l0 -0.203125q0 -0.90625 -0.484375 -1.515625q-0.484375 -0.609375 -1.4375 -0.609375zm4.8515625 3.328125q0 -2.03125 0.890625 -3.28125q0.890625 -1.25 2.46875 -1.25q0.796875 0 1.40625 0.328125q0.609375 0.3125 1.015625 0.921875l0.1875 -1.09375l1.234375 0l0 8.5q0 1.625 -0.953125 2.5q-0.9375 0.875 -2.71875 0.875q-0.609375 0 -1.328125 -0.171875q-0.703125 -0.171875 -1.234375 -0.453125l0.390625 -1.203125q0.40625 0.234375 0.984375 0.375q0.59375 0.15625 1.171875 0.15625q1.125 0 1.625 -0.515625q0.515625 -0.515625 0.515625 -1.5625l0 -0.953125q-0.40625 0.53125 -0.984375 0.8125q-0.578125 0.265625 -1.328125 0.265625q-1.5625 0 -2.453125 -1.125q-0.890625 -1.140625 -0.890625 -2.953125l0 -0.171875zm1.546875 0.171875q0 1.265625 0.53125 2.046875q0.546875 0.765625 1.640625 0.765625q0.703125 0 1.171875 -0.3125q0.46875 -0.3125 0.765625 -0.890625l0 -3.890625q-0.296875 -0.546875 -0.78125 -0.859375q-0.46875 -0.3125 -1.140625 -0.3125q-1.09375 0 -1.640625 0.921875q-0.546875 0.921875 -0.546875 2.359375l0 0.171875zm11.390625 4.078125q-1.765625 0 -2.8125 -1.171875q-1.03125 -1.1875 -1.03125 -3.0625l0 -0.34375q0 -1.8125 1.0625 -3.0q1.078125 -1.203125 2.546875 -1.203125q1.71875 0 2.59375 1.03125q0.875 1.03125 0.875 2.75l0 0.953125l-5.484375 0l-0.03125 0.046875q0.03125 1.21875 0.625 2.0q0.59375 0.78125 1.65625 0.78125q0.78125 0 1.375 -0.21875q0.59375 -0.21875 1.015625 -0.609375l0.609375 1.0q-0.453125 0.4375 -1.203125 0.75q-0.734375 0.296875 -1.796875 0.296875zm-0.234375 -7.578125q-0.765625 0 -1.3125 0.65625q-0.546875 0.65625 -0.671875 1.640625l0.015625 0.03125l3.890625 0l0 -0.203125q0 -0.90625 -0.484375 -1.515625q-0.484375 -0.609375 -1.4375 -0.609375zm6.5703125 -1.046875l0.109375 1.25q0.421875 -0.671875 1.046875 -1.03125q0.640625 -0.375 1.453125 -0.375q1.375 0 2.125 0.796875q0.75 0.796875 0.75 2.46875l0 5.34375l-1.546875 0l0 -5.3125q0 -1.109375 -0.4375 -1.578125q-0.4375 -0.46875 -1.34375 -0.46875q-0.671875 0 -1.1875 0.328125q-0.5 0.3125 -0.8125 0.859375l0 6.171875l-1.53125 0l0 -8.453125l1.375 0zm7.359375 4.375q0 -2.03125 0.875 -3.28125q0.875 -1.25 2.4375 -1.25q0.75 0 1.3125 0.28125q0.578125 0.265625 0.984375 0.78125l0 -4.640625l1.546875 0l0 12.1875l-1.265625 0l-0.171875 -1.046875q-0.421875 0.59375 -1.03125 0.90625q-0.59375 0.3125 -1.390625 0.3125q-1.546875 0 -2.421875 -1.125q-0.875 -1.125 -0.875 -2.953125l0 -0.171875zm1.546875 0.171875q0 1.28125 0.515625 2.046875q0.53125 0.765625 1.625 0.765625q0.6875 0 1.15625 -0.3125q0.46875 -0.3125 0.765625 -0.875l0 -3.9375q-0.296875 -0.53125 -0.765625 -0.828125q-0.46875 -0.3125 -1.140625 -0.3125q-1.109375 0 -1.640625 0.921875q-0.515625 0.90625 -0.515625 2.359375l0 0.171875z" fill-rule="nonzero"></path><path fill="#000000" fill-opacity="0.0" d="m50.85302 319.80054l193.48032 0l0 31.181091l-193.48032 0z" fill-rule="nonzero"></path><path fill="#666666" d="m61.94677 340.32053l-1.15625 0l0 -6.34375l1.15625 0l0 6.34375zm0 -7.96875l-1.15625 0l0 -1.171875l1.15625 0l0 1.171875zm2.8046875 1.625l0.078125 0.953125q0.3125 -0.515625 0.78125 -0.78125q0.484375 -0.28125 1.09375 -0.28125q1.03125 0 1.59375 0.609375q0.5625 0.59375 0.5625 1.84375l0 4.0l-1.15625 0l0 -3.984375q0 -0.828125 -0.328125 -1.171875q-0.328125 -0.359375 -1.015625 -0.359375q-0.5 0 -0.890625 0.234375q-0.375 0.234375 -0.59375 0.65625l0 4.625l-1.15625 0l0 -6.34375l1.03125 0zm5.5234375 3.296875q0 -1.53125 0.640625 -2.46875q0.65625 -0.9375 1.84375 -0.9375q0.546875 0 0.984375 0.203125q0.4375 0.203125 0.734375 0.59375l0 -3.484375l1.15625 0l0 9.140625l-0.9375 0l-0.140625 -0.78125q-0.3125 0.453125 -0.765625 0.6875q-0.453125 0.21875 -1.046875 0.21875q-1.15625 0 -1.8125 -0.84375q-0.65625 -0.84375 -0.65625 -2.21875l0 -0.109375zm1.15625 0.109375q0 0.96875 0.390625 1.546875q0.390625 0.578125 1.21875 0.578125q0.515625 0 0.859375 -0.234375q0.359375 -0.234375 0.578125 -0.65625l0 -2.96875q-0.21875 -0.390625 -0.578125 -0.609375q-0.359375 -0.234375 -0.84375 -0.234375q-0.84375 0 -1.234375 0.6875q-0.390625 0.671875 -0.390625 1.78125l0 0.109375zm8.5546875 3.0625q-1.328125 0 -2.109375 -0.875q-0.78125 -0.890625 -0.78125 -2.296875l0 -0.265625q0 -1.34375 0.796875 -2.234375q0.8125 -0.90625 1.921875 -0.90625q1.28125 0 1.9375 0.78125q0.65625 0.765625 0.65625 2.046875l0 0.71875l-4.109375 0l-0.015625 0.03125q0.015625 0.921875 0.453125 1.515625q0.453125 0.578125 1.25 0.578125q0.59375 0 1.03125 -0.15625q0.4375 -0.171875 0.765625 -0.46875l0.453125 0.75q-0.34375 0.328125 -0.90625 0.5625q-0.546875 0.21875 -1.34375 0.21875zm-0.171875 -5.671875q-0.578125 0 -1.0 0.484375q-0.40625 0.484375 -0.5 1.234375l0.015625 0.03125l2.921875 0l0 -0.15625q0 -0.6875 -0.359375 -1.140625q-0.359375 -0.453125 -1.078125 -0.453125zm9.283203 2.609375q0 1.375 -0.65625 2.21875q-0.65625 0.84375 -1.796875 0.84375q-0.59375 0 -1.046875 -0.1875q-0.4375 -0.203125 -0.734375 -0.59375l0 3.09375l-1.15625 0l0 -8.78125l0.875 0l0.1875 0.828125q0.3125 -0.46875 0.765625 -0.703125q0.46875 -0.234375 1.078125 -0.234375q1.1875 0 1.828125 0.9375q0.65625 0.921875 0.65625 2.46875l0 0.109375zm-1.140625 -0.109375q0 -1.078125 -0.4375 -1.765625q-0.421875 -0.703125 -1.25 -0.703125q-0.5 0 -0.859375 0.234375q-0.34375 0.21875 -0.546875 0.609375l0 3.0625q0.203125 0.390625 0.546875 0.609375q0.359375 0.21875 0.875 0.21875q0.828125 0 1.25 -0.59375q0.421875 -0.609375 0.421875 -1.5625l0 -0.109375zm5.1953125 3.171875q-1.328125 0 -2.109375 -0.875q-0.78125 -0.890625 -0.78125 -2.296875l0 -0.265625q0 -1.34375 0.796875 -2.234375q0.8125 -0.90625 1.921875 -0.90625q1.28125 0 1.9375 0.78125q0.65625 0.765625 0.65625 2.046875l0 0.71875l-4.109375 0l-0.015625 0.03125q0.015625 0.921875 0.453125 1.515625q0.453125 0.578125 1.25 0.578125q0.59375 0 1.03125 -0.15625q0.4375 -0.171875 0.765625 -0.46875l0.453125 0.75q-0.34375 0.328125 -0.90625 0.5625q-0.546875 0.21875 -1.34375 0.21875zm-0.171875 -5.671875q-0.578125 0 -1.0 0.484375q-0.40625 0.484375 -0.5 1.234375l0.015625 0.03125l2.921875 0l0 -0.15625q0 -0.6875 -0.359375 -1.140625q-0.359375 -0.453125 -1.078125 -0.453125zm4.923828 -0.796875l0.078125 0.953125q0.3125 -0.515625 0.78125 -0.78125q0.484375 -0.28125 1.09375 -0.28125q1.03125 0 1.59375 0.609375q0.5625 0.59375 0.5625 1.84375l0 4.0l-1.15625 0l0 -3.984375q0 -0.828125 -0.328125 -1.171875q-0.328125 -0.359375 -1.015625 -0.359375q-0.5 0 -0.890625 0.234375q-0.375 0.234375 -0.59375 0.65625l0 4.625l-1.15625 0l0 -6.34375l1.03125 0zm5.5234375 3.296875q0 -1.53125 0.640625 -2.46875q0.65625 -0.9375 1.84375 -0.9375q0.546875 0 0.984375 0.203125q0.4375 0.203125 0.734375 0.59375l0 -3.484375l1.15625 0l0 9.140625l-0.9375 0l-0.140625 -0.78125q-0.3125 0.453125 -0.765625 0.6875q-0.453125 0.21875 -1.046875 0.21875q-1.15625 0 -1.8125 -0.84375q-0.65625 -0.84375 -0.65625 -2.21875l0 -0.109375zm1.15625 0.109375q0 0.96875 0.390625 1.546875q0.390625 0.578125 1.21875 0.578125q0.515625 0 0.859375 -0.234375q0.359375 -0.234375 0.578125 -0.65625l0 -2.96875q-0.21875 -0.390625 -0.578125 -0.609375q-0.359375 -0.234375 -0.84375 -0.234375q-0.84375 0 -1.234375 0.6875q-0.390625 0.671875 -0.390625 1.78125l0 0.109375zm8.5546875 3.0625q-1.328125 0 -2.109375 -0.875q-0.78125 -0.890625 -0.78125 -2.296875l0 -0.265625q0 -1.34375 0.796875 -2.234375q0.8125 -0.90625 1.921875 -0.90625q1.28125 0 1.9375 0.78125q0.65625 0.765625 0.65625 2.046875l0 0.71875l-4.109375 0l-0.015625 0.03125q0.015625 0.921875 0.453125 1.515625q0.453125 0.578125 1.25 0.578125q0.59375 0 1.03125 -0.15625q0.4375 -0.171875 0.765625 -0.46875l0.453125 0.75q-0.34375 0.328125 -0.90625 0.5625q-0.546875 0.21875 -1.34375 0.21875zm-0.171875 -5.671875q-0.578125 0 -1.0 0.484375q-0.40625 0.484375 -0.5 1.234375l0.015625 0.03125l2.921875 0l0 -0.15625q0 -0.6875 -0.359375 -1.140625q-0.359375 -0.453125 -1.078125 -0.453125zm4.923828 -0.796875l0.078125 0.953125q0.3125 -0.515625 0.78125 -0.78125q0.484375 -0.28125 1.09375 -0.28125q1.03125 0 1.59375 0.609375q0.5625 0.59375 0.5625 1.84375l0 4.0l-1.15625 0l0 -3.984375q0 -0.828125 -0.328125 -1.171875q-0.328125 -0.359375 -1.015625 -0.359375q-0.5 0 -0.890625 0.234375q-0.375 0.234375 -0.59375 0.65625l0 4.625l-1.15625 0l0 -6.34375l1.03125 0zm7.3046875 -1.53125l0 1.53125l1.203125 0l0 0.859375l-1.203125 0l0 3.84375q0 0.453125 0.1875 0.640625q0.1875 0.171875 0.484375 0.171875q0.109375 0 0.21875 -0.015625q0.125 -0.03125 0.21875 -0.0625l0.15625 0.78125q-0.125 0.109375 -0.375 0.171875q-0.25 0.078125 -0.5 0.078125q-0.703125 0 -1.125 -0.421875q-0.421875 -0.4375 -0.421875 -1.34375l0 -3.84375l-1.0 0l0 -0.859375l1.0 0l0 -1.53125l1.15625 0zm8.240227 8.0q-1.328125 0 -2.109375 -0.875q-0.78125 -0.890625 -0.78125 -2.296875l0 -0.265625q0 -1.34375 0.796875 -2.234375q0.8125 -0.90625 1.921875 -0.90625q1.28125 0 1.9375 0.78125q0.65625 0.765625 0.65625 2.046875l0 0.71875l-4.109375 0l-0.015625 0.03125q0.015625 0.921875 0.453125 1.515625q0.453125 0.578125 1.25 0.578125q0.59375 0 1.03125 -0.15625q0.4375 -0.171875 0.765625 -0.46875l0.453125 0.75q-0.34375 0.328125 -0.90625 0.5625q-0.546875 0.21875 -1.34375 0.21875zm-0.171875 -5.671875q-0.578125 0 -1.0 0.484375q-0.40625 0.484375 -0.5 1.234375l0.015625 0.03125l2.921875 0l0 -0.15625q0 -0.6875 -0.359375 -1.140625q-0.359375 -0.453125 -1.078125 -0.453125zm4.923828 -0.796875l0.078125 0.953125q0.3125 -0.515625 0.78125 -0.78125q0.484375 -0.28125 1.09375 -0.28125q1.03125 0 1.59375 0.609375q0.5625 0.59375 0.5625 1.84375l0 4.0l-1.15625 0l0 -3.984375q0 -0.828125 -0.328125 -1.171875q-0.328125 -0.359375 -1.015625 -0.359375q-0.5 0 -0.890625 0.234375q-0.375 0.234375 -0.59375 0.65625l0 4.625l-1.15625 0l0 -6.34375l1.03125 0zm7.3046875 -1.53125l0 1.53125l1.203125 0l0 0.859375l-1.203125 0l0 3.84375q0 0.453125 0.1875 0.640625q0.1875 0.171875 0.484375 0.171875q0.109375 0 0.21875 -0.015625q0.125 -0.03125 0.21875 -0.0625l0.15625 0.78125q-0.125 0.109375 -0.375 0.171875q-0.25 0.078125 -0.5 0.078125q-0.703125 0 -1.125 -0.421875q-0.421875 -0.4375 -0.421875 -1.34375l0 -3.84375l-1.0 0l0 -0.859375l1.0 0l0 -1.53125l1.15625 0zm3.8828125 7.875l-1.15625 0l0 -6.34375l1.15625 0l0 6.34375zm0 -7.96875l-1.15625 0l0 -1.171875l1.15625 0l0 1.171875zm3.2890625 0.09375l0 1.53125l1.203125 0l0 0.859375l-1.203125 0l0 3.84375q0 0.453125 0.1875 0.640625q0.1875 0.171875 0.484375 0.171875q0.109375 0 0.21875 -0.015625q0.125 -0.03125 0.21875 -0.0625l0.15625 0.78125q-0.125 0.109375 -0.375 0.171875q-0.25 0.078125 -0.5 0.078125q-0.703125 0 -1.125 -0.421875q-0.421875 -0.4375 -0.421875 -1.34375l0 -3.84375l-1.0 0l0 -0.859375l1.0 0l0 -1.53125l1.15625 0zm4.5703125 5.53125l0.203125 0.796875l0.03125 0l1.5625 -4.796875l1.28125 0l-2.671875 7.3125q-0.234375 0.640625 -0.6875 1.109375q-0.4375 0.484375 -1.203125 0.484375q-0.140625 0 -0.359375 -0.03125q-0.21875 -0.03125 -0.328125 -0.0625l0.109375 -0.90625q-0.03125 -0.015625 0.203125 0q0.25 0.03125 0.3125 0.03125q0.375 0 0.609375 -0.328125q0.234375 -0.328125 0.390625 -0.734375l0.28125 -0.65625l-2.359375 -6.21875l1.28125 0l1.34375 4.0z" fill-rule="nonzero"></path><path fill="#000000" fill-opacity="0.0" d="m50.85302 281.52756l193.48032 0l0 31.181091l-193.48032 0z" fill-rule="nonzero"></path><path fill="#666666" d="m61.16552 302.04755l0 -5.484375l-0.984375 0l0 -0.859375l0.984375 0l0 -0.796875q0 -1.015625 0.53125 -1.5625q0.53125 -0.5625 1.484375 -0.5625q0.203125 0 0.40625 0.03125q0.203125 0.03125 0.4375 0.09375l-0.140625 0.875q-0.09375 -0.015625 -0.25 -0.03125q-0.140625 -0.03125 -0.3125 -0.03125q-0.5 0 -0.75 0.3125q-0.25 0.296875 -0.25 0.875l0 0.796875l1.328125 0l0 0.859375l-1.328125 0l0 5.484375l-1.15625 0zm3.3925781 -3.234375q0 -1.40625 0.765625 -2.3125q0.765625 -0.90625 2.078125 -0.90625q1.3125 0 2.078125 0.90625q0.765625 0.90625 0.765625 2.3125l0 0.140625q0 1.40625 -0.765625 2.3125q-0.765625 0.90625 -2.078125 0.90625q-1.3125 0 -2.078125 -0.90625q-0.765625 -0.90625 -0.765625 -2.3125l0 -0.140625zm1.15625 0.140625q0 1.0 0.421875 1.65625q0.4375 0.65625 1.265625 0.65625q0.828125 0 1.25 -0.65625q0.4375 -0.65625 0.4375 -1.65625l0 -0.140625q0 -0.984375 -0.4375 -1.640625q-0.421875 -0.671875 -1.25 -0.671875q-0.828125 0 -1.265625 0.671875q-0.421875 0.65625 -0.421875 1.640625l0 0.140625zm9.9609375 2.15625q-0.296875 0.515625 -0.765625 0.796875q-0.46875 0.265625 -1.078125 0.265625q-1.046875 0 -1.625 -0.65625q-0.578125 -0.671875 -0.578125 -2.078125l0 -3.734375l1.15625 0l0 3.75q0 1.015625 0.296875 1.40625q0.296875 0.375 0.9375 0.375q0.609375 0 1.015625 -0.25q0.40625 -0.25 0.609375 -0.703125l0 -4.578125l1.15625 0l0 6.34375l-1.046875 0l-0.078125 -0.9375zm3.8359375 -5.40625l0.078125 0.953125q0.3125 -0.515625 0.78125 -0.78125q0.484375 -0.28125 1.09375 -0.28125q1.03125 0 1.59375 0.609375q0.5625 0.59375 0.5625 1.84375l0 4.0l-1.15625 0l0 -3.984375q0 -0.828125 -0.328125 -1.171875q-0.328125 -0.359375 -1.015625 -0.359375q-0.5 0 -0.890625 0.234375q-0.375 0.234375 -0.59375 0.65625l0 4.625l-1.15625 0l0 -6.34375l1.03125 0zm5.5234375 3.296875q0 -1.53125 0.640625 -2.46875q0.65625 -0.9375 1.84375 -0.9375q0.546875 0 0.984375 0.203125q0.4375 0.203125 0.734375 0.59375l0 -3.484375l1.15625 0l0 9.140625l-0.9375 0l-0.140625 -0.78125q-0.3125 0.453125 -0.765625 0.6875q-0.453125 0.21875 -1.046875 0.21875q-1.15625 0 -1.8125 -0.84375q-0.65625 -0.84375 -0.65625 -2.21875l0 -0.109375zm1.15625 0.109375q0 0.96875 0.390625 1.546875q0.390625 0.578125 1.21875 0.578125q0.515625 0 0.859375 -0.234375q0.359375 -0.234375 0.578125 -0.65625l0 -2.96875q-0.21875 -0.390625 -0.578125 -0.609375q-0.359375 -0.234375 -0.84375 -0.234375q-0.84375 0 -1.234375 0.6875q-0.390625 0.671875 -0.390625 1.78125l0 0.109375zm9.8203125 2.9375q-0.0625 -0.28125 -0.09375 -0.5q-0.03125 -0.234375 -0.03125 -0.453125q-0.328125 0.453125 -0.84375 0.765625q-0.515625 0.3125 -1.109375 0.3125q-1.0 0 -1.515625 -0.5q-0.515625 -0.515625 -0.515625 -1.40625q0 -0.90625 0.734375 -1.421875q0.734375 -0.515625 2.0 -0.515625l1.25 0l0 -0.625q0 -0.5625 -0.34375 -0.875q-0.34375 -0.328125 -0.953125 -0.328125q-0.5625 0 -0.921875 0.28125q-0.34375 0.28125 -0.34375 0.6875l-1.09375 0l-0.015625 -0.046875q-0.03125 -0.6875 0.65625 -1.25q0.6875 -0.578125 1.78125 -0.578125q1.078125 0 1.734375 0.546875q0.65625 0.546875 0.65625 1.578125l0 3.046875q0 0.34375 0.03125 0.65625q0.03125 0.3125 0.125 0.625l-1.1875 0zm-1.921875 -0.84375q0.640625 0 1.140625 -0.3125q0.5 -0.328125 0.65625 -0.75l0 -1.03125l-1.296875 0q-0.703125 0 -1.125 0.359375q-0.40625 0.34375 -0.40625 0.8125q0 0.421875 0.25 0.671875q0.265625 0.25 0.78125 0.25zm6.1445312 -7.03125l0 1.53125l1.203125 0l0 0.859375l-1.203125 0l0 3.84375q0 0.453125 0.1875 0.640625q0.1875 0.171875 0.484375 0.171875q0.109375 0 0.21875 -0.015625q0.125 -0.03125 0.21875 -0.0625l0.15625 0.78125q-0.125 0.109375 -0.375 0.171875q-0.25 0.078125 -0.5 0.078125q-0.703125 0 -1.125 -0.421875q-0.421875 -0.4375 -0.421875 -1.34375l0 -3.84375l-1.0 0l0 -0.859375l1.0 0l0 -1.53125l1.15625 0zm3.8828125 7.875l-1.15625 0l0 -6.34375l1.15625 0l0 6.34375zm0 -7.96875l-1.15625 0l0 -1.171875l1.15625 0l0 1.171875zm1.4921875 4.734375q0 -1.40625 0.765625 -2.3125q0.765625 -0.90625 2.078125 -0.90625q1.3125 0 2.078125 0.90625q0.765625 0.90625 0.765625 2.3125l0 0.140625q0 1.40625 -0.765625 2.3125q-0.765625 0.90625 -2.078125 0.90625q-1.3125 0 -2.078125 -0.90625q-0.765625 -0.90625 -0.765625 -2.3125l0 -0.140625zm1.15625 0.140625q0 1.0 0.421875 1.65625q0.4375 0.65625 1.265625 0.65625q0.828125 0 1.25 -0.65625q0.4375 -0.65625 0.4375 -1.65625l0 -0.140625q0 -0.984375 -0.4375 -1.640625q-0.421875 -0.671875 -1.25 -0.671875q-0.828125 0 -1.265625 0.671875q-0.421875 0.65625 -0.421875 1.640625l0 0.140625zm6.9765625 -3.25l0.078125 0.953125q0.3125 -0.515625 0.78125 -0.78125q0.484375 -0.28125 1.09375 -0.28125q1.03125 0 1.59375 0.609375q0.5625 0.59375 0.5625 1.84375l0 4.0l-1.15625 0l0 -3.984375q0 -0.828125 -0.328125 -1.171875q-0.328125 -0.359375 -1.015625 -0.359375q-0.5 0 -0.890625 0.234375q-0.375 0.234375 -0.59375 0.65625l0 4.625l-1.15625 0l0 -6.34375l1.03125 0zm11.396484 6.46875q-1.328125 0 -2.109375 -0.875q-0.78125 -0.890625 -0.78125 -2.296875l0 -0.265625q0 -1.34375 0.796875 -2.234375q0.8125 -0.90625 1.921875 -0.90625q1.28125 0 1.9375 0.78125q0.65625 0.765625 0.65625 2.046875l0 0.71875l-4.109375 0l-0.015625 0.03125q0.015625 0.921875 0.453125 1.515625q0.453125 0.578125 1.25 0.578125q0.59375 0 1.03125 -0.15625q0.4375 -0.171875 0.765625 -0.46875l0.453125 0.75q-0.34375 0.328125 -0.90625 0.5625q-0.546875 0.21875 -1.34375 0.21875zm-0.171875 -5.671875q-0.578125 0 -1.0 0.484375q-0.40625 0.484375 -0.5 1.234375l0.015625 0.03125l2.921875 0l0 -0.15625q0 -0.6875 -0.359375 -1.140625q-0.359375 -0.453125 -1.078125 -0.453125zm4.9238205 -0.796875l0.078125 0.953125q0.3125 -0.515625 0.78125 -0.78125q0.484375 -0.28125 1.09375 -0.28125q1.03125 0 1.59375 0.609375q0.5625 0.59375 0.5625 1.84375l0 4.0l-1.15625 0l0 -3.984375q0 -0.828125 -0.328125 -1.171875q-0.328125 -0.359375 -1.015625 -0.359375q-0.5 0 -0.890625 0.234375q-0.375 0.234375 -0.59375 0.65625l0 4.625l-1.15625 0l0 -6.34375l1.03125 0zm7.3046875 -1.53125l0 1.53125l1.203125 0l0 0.859375l-1.203125 0l0 3.84375q0 0.453125 0.1875 0.640625q0.1875 0.171875 0.484375 0.171875q0.109375 0 0.21875 -0.015625q0.125 -0.03125 0.21875 -0.0625l0.15625 0.78125q-0.125 0.109375 -0.375 0.171875q-0.25 0.078125 -0.5 0.078125q-0.703125 0 -1.125 -0.421875q-0.421875 -0.4375 -0.421875 -1.34375l0 -3.84375l-1.0 0l0 -0.859375l1.0 0l0 -1.53125l1.15625 0zm3.8828125 7.875l-1.15625 0l0 -6.34375l1.15625 0l0 6.34375zm0 -7.96875l-1.15625 0l0 -1.171875l1.15625 0l0 1.171875zm3.2890625 0.09375l0 1.53125l1.203125 0l0 0.859375l-1.203125 0l0 3.84375q0 0.453125 0.1875 0.640625q0.1875 0.171875 0.484375 0.171875q0.109375 0 0.21875 -0.015625q0.125 -0.03125 0.21875 -0.0625l0.15625 0.78125q-0.125 0.109375 -0.375 0.171875q-0.25 0.078125 -0.5 0.078125q-0.703125 0 -1.125 -0.421875q-0.421875 -0.4375 -0.421875 -1.34375l0 -3.84375l-1.0 0l0 -0.859375l1.0 0l0 -1.53125l1.15625 0zm4.5703125 5.53125l0.203125 0.796875l0.03125 0l1.5625 -4.796875l1.28125 0l-2.671875 7.3125q-0.234375 0.640625 -0.6875 1.109375q-0.4375 0.484375 -1.203125 0.484375q-0.140625 0 -0.359375 -0.03125q-0.21875 -0.03125 -0.328125 -0.0625l0.109375 -0.90625q-0.03125 -0.015625 0.203125 0q0.25 0.03125 0.3125 0.03125q0.375 0 0.609375 -0.328125q0.234375 -0.328125 0.390625 -0.734375l0.28125 -0.65625l-2.359375 -6.21875l1.28125 0l1.34375 4.0z" fill-rule="nonzero"></path><path fill="#000000" fill-opacity="0.0" d="m471.4882 139.17061l-71.55905 0" fill-rule="nonzero"></path><path stroke="#000000" stroke-width="1.0" stroke-linejoin="round" stroke-linecap="butt" stroke-dasharray="1.0,3.0" d="m471.4882 139.17061l-71.55905 0" fill-rule="nonzero"></path><path fill="#000000" fill-opacity="0.0" d="m560.8898 228.57219l0 59.37007" fill-rule="nonzero"></path><path stroke="#000000" stroke-width="1.0" stroke-linejoin="round" stroke-linecap="butt" stroke-dasharray="1.0,3.0" d="m560.8898 228.57219l0 59.37007" fill-rule="nonzero"></path><path fill="#ff9900" d="m14.370079 364.36484l28.346458 0l0 23.496063l-28.346458 0z" fill-rule="nonzero"></path><path stroke="#000000" stroke-width="1.0" stroke-linejoin="round" stroke-linecap="butt" d="m14.370079 364.36484l28.346458 0l0 23.496063l-28.346458 0z" fill-rule="nonzero"></path><path fill="#000000" fill-opacity="0.0" d="m46.6063 360.5223l239.3386 0l0 31.181091l-239.3386 0z" fill-rule="nonzero"></path><path fill="#666666" d="m59.028175 380.26105q0.5625 0 1.0 -0.34375q0.4375 -0.359375 0.4375 -0.875l1.046875 0l0 0.03125q0.03125 0.8125 -0.734375 1.453125q-0.75 0.640625 -1.75 0.640625q-1.390625 0 -2.125 -0.90625q-0.734375 -0.90625 -0.734375 -2.265625l0 -0.25q0 -1.34375 0.734375 -2.25q0.75 -0.90625 2.125 -0.90625q1.109375 0 1.8125 0.65625q0.703125 0.65625 0.6875 1.609375l-0.015625 0.03125l-1.046875 0q0 -0.578125 -0.40625 -0.984375q-0.40625 -0.40625 -1.03125 -0.40625q-0.90625 0 -1.296875 0.65625q-0.390625 0.640625 -0.390625 1.59375l0 0.25q0 0.96875 0.375 1.625q0.390625 0.640625 1.3125 0.640625zm3.5097656 -2.453125q0 -1.40625 0.765625 -2.3125q0.765625 -0.90625 2.078125 -0.90625q1.3125 0 2.078125 0.90625q0.765625 0.90625 0.765625 2.3125l0 0.140625q0 1.40625 -0.765625 2.3125q-0.765625 0.90625 -2.078125 0.90625q-1.3125 0 -2.078125 -0.90625q-0.765625 -0.90625 -0.765625 -2.3125l0 -0.140625zm1.15625 0.140625q0 1.0 0.421875 1.65625q0.4375 0.65625 1.265625 0.65625q0.828125 0 1.25 -0.65625q0.4375 -0.65625 0.4375 -1.65625l0 -0.140625q0 -0.984375 -0.4375 -1.640625q-0.421875 -0.671875 -1.25 -0.671875q-0.828125 0 -1.265625 0.671875q-0.421875 0.65625 -0.421875 1.640625l0 0.140625zm6.9765625 -3.25l0.078125 0.828125q0.3125 -0.4375 0.78125 -0.6875q0.484375 -0.25 1.109375 -0.25q0.640625 0 1.09375 0.296875q0.453125 0.28125 0.6875 0.875q0.296875 -0.546875 0.78125 -0.859375q0.5 -0.3125 1.15625 -0.3125q0.96875 0 1.53125 0.671875q0.5625 0.65625 0.5625 1.984375l0 3.796875l-1.15625 0l0 -3.796875q0 -0.9375 -0.328125 -1.328125q-0.3125 -0.390625 -0.953125 -0.390625q-0.59375 0 -0.96875 0.40625q-0.359375 0.40625 -0.421875 1.03125l0 0.046875l0 4.03125l-1.15625 0l0 -3.796875q0 -0.890625 -0.34375 -1.296875q-0.328125 -0.421875 -0.953125 -0.421875q-0.515625 0 -0.859375 0.21875q-0.34375 0.203125 -0.515625 0.609375l0 4.6875l-1.15625 0l0 -6.34375l1.03125 0zm10.488281 0l0.078125 0.828125q0.3125 -0.4375 0.78125 -0.6875q0.484375 -0.25 1.109375 -0.25q0.640625 0 1.09375 0.296875q0.453125 0.28125 0.6875 0.875q0.296875 -0.546875 0.78125 -0.859375q0.5 -0.3125 1.15625 -0.3125q0.96875 0 1.53125 0.671875q0.5625 0.65625 0.5625 1.984375l0 3.796875l-1.15625 0l0 -3.796875q0 -0.9375 -0.328125 -1.328125q-0.3125 -0.390625 -0.953125 -0.390625q-0.59375 0 -0.96875 0.40625q-0.359375 0.40625 -0.421875 1.03125l0 0.046875l0 4.03125l-1.15625 0l0 -3.796875q0 -0.890625 -0.34375 -1.296875q-0.328125 -0.421875 -0.953125 -0.421875q-0.515625 0 -0.859375 0.21875q-0.34375 0.203125 -0.515625 0.609375l0 4.6875l-1.15625 0l0 -6.34375l1.03125 0zm13.472656 5.40625q-0.296875 0.515625 -0.765625 0.796875q-0.46875 0.265625 -1.078125 0.265625q-1.046875 0 -1.625 -0.65625q-0.578125 -0.671875 -0.578125 -2.078125l0 -3.734375l1.15625 0l0 3.75q0 1.015625 0.296875 1.40625q0.296875 0.375 0.9375 0.375q0.609375 0 1.015625 -0.25q0.40625 -0.25 0.609375 -0.703125l0 -4.578125l1.15625 0l0 6.34375l-1.046875 0l-0.078125 -0.9375zm3.8359375 -5.40625l0.078125 0.953125q0.3125 -0.515625 0.78125 -0.78125q0.484375 -0.28125 1.09375 -0.28125q1.03125 0 1.59375 0.609375q0.5625 0.59375 0.5625 1.84375l0 4.0l-1.15625 0l0 -3.984375q0 -0.828125 -0.328125 -1.171875q-0.328125 -0.359375 -1.015625 -0.359375q-0.5 0 -0.890625 0.234375q-0.375 0.234375 -0.59375 0.65625l0 4.625l-1.15625 0l0 -6.34375l1.03125 0zm7.0390625 6.34375l-1.15625 0l0 -6.34375l1.15625 0l0 6.34375zm0 -7.96875l-1.15625 0l0 -1.171875l1.15625 0l0 1.171875zm3.2890625 0.09375l0 1.53125l1.203125 0l0 0.859375l-1.203125 0l0 3.84375q0 0.453125 0.1875 0.640625q0.1875 0.171875 0.484375 0.171875q0.109375 0 0.21875 -0.015625q0.125 -0.03125 0.21875 -0.0625l0.15625 0.78125q-0.125 0.109375 -0.375 0.171875q-0.25 0.078125 -0.5 0.078125q-0.703125 0 -1.125 -0.421875q-0.421875 -0.4375 -0.421875 -1.34375l0 -3.84375l-1.0 0l0 -0.859375l1.0 0l0 -1.53125l1.15625 0zm4.5703125 5.53125l0.203125 0.796875l0.03125 0l1.5625 -4.796875l1.28125 0l-2.671875 7.3125q-0.234375 0.640625 -0.6875 1.109375q-0.4375 0.484375 -1.203125 0.484375q-0.140625 0 -0.359375 -0.03125q-0.21875 -0.03125 -0.328125 -0.0625l0.109375 -0.90625q-0.03125 -0.015625 0.203125 0q0.25 0.03125 0.3125 0.03125q0.375 0 0.609375 -0.328125q0.234375 -0.328125 0.390625 -0.734375l0.28125 -0.65625l-2.359375 -6.21875l1.28125 0l1.34375 4.0zm12.470703 -0.59375q0 1.375 -0.65625 2.21875q-0.65625 0.84375 -1.796875 0.84375q-0.59375 0 -1.046875 -0.1875q-0.4375 -0.203125 -0.734375 -0.59375l0 3.09375l-1.15625 0l0 -8.78125l0.875 0l0.1875 0.828125q0.3125 -0.46875 0.765625 -0.703125q0.46875 -0.234375 1.078125 -0.234375q1.1875 0 1.828125 0.9375q0.65625 0.921875 0.65625 2.46875l0 0.109375zm-1.140625 -0.109375q0 -1.078125 -0.4375 -1.765625q-0.421875 -0.703125 -1.25 -0.703125q-0.5 0 -0.859375 0.234375q-0.34375 0.21875 -0.546875 0.609375l0 3.0625q0.203125 0.390625 0.546875 0.609375q0.359375 0.21875 0.875 0.21875q0.828125 0 1.25 -0.59375q0.421875 -0.609375 0.421875 -1.5625l0 -0.109375zm5.570305 -2.28125l-0.59375 -0.03125q-0.453125 0 -0.78125 0.21875q-0.3125 0.21875 -0.46875 0.609375l0 4.53125l-1.1562424 0l0 -6.34375l1.0312424 0l0.109375 0.921875q0.265625 -0.484375 0.65625 -0.75q0.40625 -0.28125 0.921875 -0.28125q0.125 0 0.234375 0.015625q0.125 0.015625 0.203125 0.046875l-0.15625 1.0625zm0.83203125 2.09375q0 -1.40625 0.765625 -2.3125q0.765625 -0.90625 2.078125 -0.90625q1.3125 0 2.078125 0.90625q0.765625 0.90625 0.765625 2.3125l0 0.140625q0 1.40625 -0.765625 2.3125q-0.765625 0.90625 -2.078125 0.90625q-1.3125 0 -2.078125 -0.90625q-0.765625 -0.90625 -0.765625 -2.3125l0 -0.140625zm1.15625 0.140625q0 1.0 0.421875 1.65625q0.4375 0.65625 1.265625 0.65625q0.828125 0 1.25 -0.65625q0.4375 -0.65625 0.4375 -1.65625l0 -0.140625q0 -0.984375 -0.4375 -1.640625q-0.421875 -0.671875 -1.25 -0.671875q-0.828125 0 -1.265625 0.671875q-0.421875 0.65625 -0.421875 1.640625l0 0.140625zm7.2734375 -3.25l0 6.859375q0 0.984375 -0.515625 1.515625q-0.5 0.53125 -1.390625 0.53125q-0.1875 0 -0.328125 -0.03125q-0.15625 -0.015625 -0.328125 -0.078125l0.078125 -0.90625q0.09375 0.03125 0.25 0.046875q0.140625 0.03125 0.25 0.03125q0.375 0 0.59375 -0.265625q0.234375 -0.25 0.234375 -0.84375l0 -6.859375l1.15625 0zm-0.03125 -1.640625l-1.15625 0l0 -1.15625l1.15625 0l0 1.15625zm4.4335938 8.109375q-1.328125 0 -2.109375 -0.875q-0.78125 -0.890625 -0.78125 -2.296875l0 -0.265625q0 -1.34375 0.796875 -2.234375q0.8125 -0.90625 1.921875 -0.90625q1.28125 0 1.9375 0.78125q0.65625 0.765625 0.65625 2.046875l0 0.71875l-4.109375 0l-0.015625 0.03125q0.015625 0.921875 0.453125 1.515625q0.453125 0.578125 1.25 0.578125q0.59375 0 1.03125 -0.15625q0.4375 -0.171875 0.765625 -0.46875l0.453125 0.75q-0.34375 0.328125 -0.90625 0.5625q-0.546875 0.21875 -1.34375 0.21875zm-0.171875 -5.671875q-0.578125 0 -1.0 0.484375q-0.40625 0.484375 -0.5 1.234375l0.015625 0.03125l2.921875 0l0 -0.15625q0 -0.6875 -0.359375 -1.140625q-0.359375 -0.453125 -1.078125 -0.453125zm6.470703 4.765625q0.5625 0 1.0 -0.34375q0.4375 -0.359375 0.4375 -0.875l1.046875 0l0 0.03125q0.03125 0.8125 -0.734375 1.453125q-0.75 0.640625 -1.75 0.640625q-1.390625 0 -2.125 -0.90625q-0.734375 -0.90625 -0.734375 -2.265625l0 -0.25q0 -1.34375 0.734375 -2.25q0.75 -0.90625 2.125 -0.90625q1.109375 0 1.8125 0.65625q0.703125 0.65625 0.6875 1.609375l-0.015625 0.03125l-1.046875 0q0 -0.578125 -0.40625 -0.984375q-0.40625 -0.40625 -1.03125 -0.40625q-0.90625 0 -1.296875 0.65625q-0.390625 0.640625 -0.390625 1.59375l0 0.25q0 0.96875 0.375 1.625q0.390625 0.640625 1.3125 0.640625zm5.3066406 -7.09375l0 1.53125l1.203125 0l0 0.859375l-1.203125 0l0 3.84375q0 0.453125 0.1875 0.640625q0.1875 0.171875 0.484375 0.171875q0.109375 0 0.21875 -0.015625q0.125 -0.03125 0.21875 -0.0625l0.15625 0.78125q-0.125 0.109375 -0.375 0.171875q-0.25 0.078125 -0.5 0.078125q-0.703125 0 -1.125 -0.421875q-0.421875 -0.4375 -0.421875 -1.34375l0 -3.84375l-1.0 0l0 -0.859375l1.0 0l0 -1.53125l1.15625 0zm6.0839844 7.875l0 -5.484375l-0.984375 0l0 -0.859375l0.984375 0l0 -0.796875q0 -1.015625 0.53125 -1.5625q0.53125 -0.5625 1.484375 -0.5625q0.203125 0 0.40625 0.03125q0.203125 0.03125 0.4375 0.09375l-0.140625 0.875q-0.09375 -0.015625 -0.25 -0.03125q-0.140625 -0.03125 -0.3125 -0.03125q-0.5 0 -0.75 0.3125q-0.25 0.296875 -0.25 0.875l0 0.796875l1.328125 0l0 0.859375l-1.328125 0l0 5.484375l-1.15625 0zm3.3925781 -3.234375q0 -1.40625 0.765625 -2.3125q0.765625 -0.90625 2.078125 -0.90625q1.3125 0 2.078125 0.90625q0.765625 0.90625 0.765625 2.3125l0 0.140625q0 1.40625 -0.765625 2.3125q-0.765625 0.90625 -2.078125 0.90625q-1.3125 0 -2.078125 -0.90625q-0.765625 -0.90625 -0.765625 -2.3125l0 -0.140625zm1.15625 0.140625q0 1.0 0.421875 1.65625q0.4375 0.65625 1.265625 0.65625q0.828125 0 1.25 -0.65625q0.4375 -0.65625 0.4375 -1.65625l0 -0.140625q0 -0.984375 -0.4375 -1.640625q-0.421875 -0.671875 -1.25 -0.671875q-0.828125 0 -1.265625 0.671875q-0.421875 0.65625 -0.421875 1.640625l0 0.140625zm8.5234375 2.3125q0.5625 0 1.0 -0.34375q0.4375 -0.359375 0.4375 -0.875l1.046875 0l0 0.03125q0.03125 0.8125 -0.734375 1.453125q-0.75 0.640625 -1.75 0.640625q-1.390625 0 -2.125 -0.90625q-0.734375 -0.90625 -0.734375 -2.265625l0 -0.25q0 -1.34375 0.734375 -2.25q0.75 -0.90625 2.125 -0.90625q1.109375 0 1.8125 0.65625q0.703125 0.65625 0.6875 1.609375l-0.015625 0.03125l-1.046875 0q0 -0.578125 -0.40625 -0.984375q-0.40625 -0.40625 -1.03125 -0.40625q-0.90625 0 -1.296875 0.65625q-0.390625 0.640625 -0.390625 1.59375l0 0.25q0 0.96875 0.375 1.625q0.390625 0.640625 1.3125 0.640625zm7.8066406 -0.15625q-0.296875 0.515625 -0.765625 0.796875q-0.46875 0.265625 -1.078125 0.265625q-1.046875 0 -1.625 -0.65625q-0.578125 -0.671875 -0.578125 -2.078125l0 -3.734375l1.15625 0l0 3.75q0 1.015625 0.296875 1.40625q0.296875 0.375 0.9375 0.375q0.609375 0 1.015625 -0.25q0.40625 -0.25 0.609375 -0.703125l0 -4.578125l1.15625 0l0 6.34375l-1.046875 0l-0.078125 -0.9375zm6.4921875 -0.75q0 -0.375 -0.296875 -0.625q-0.296875 -0.25 -1.09375 -0.421875q-1.15625 -0.25 -1.75 -0.671875q-0.578125 -0.4375 -0.578125 -1.1875q0 -0.78125 0.65625 -1.3125q0.65625 -0.546875 1.71875 -0.546875q1.109375 0 1.75 0.5625q0.65625 0.5625 0.625 1.390625l0 0.03125l-1.109375 0q0 -0.421875 -0.359375 -0.75q-0.34375 -0.328125 -0.90625 -0.328125q-0.625 0 -0.921875 0.265625q-0.296875 0.265625 -0.296875 0.65625q0 0.375 0.265625 0.59375q0.265625 0.203125 1.078125 0.375q1.1875 0.265625 1.765625 0.703125q0.59375 0.4375 0.59375 1.1875q0 0.84375 -0.6875 1.375q-0.671875 0.515625 -1.765625 0.515625q-1.21875 0 -1.921875 -0.609375q-0.6875 -0.625 -0.65625 -1.4375l0.015625 -0.046875l1.09375 0q0.03125 0.625 0.453125 0.90625q0.4375 0.28125 1.015625 0.28125q0.609375 0 0.953125 -0.25q0.359375 -0.25 0.359375 -0.65625zm6.2753906 0q0 -0.375 -0.296875 -0.625q-0.296875 -0.25 -1.09375 -0.421875q-1.15625 -0.25 -1.75 -0.671875q-0.578125 -0.4375 -0.578125 -1.1875q0 -0.78125 0.65625 -1.3125q0.65625 -0.546875 1.71875 -0.546875q1.109375 0 1.75 0.5625q0.65625 0.5625 0.625 1.390625l0 0.03125l-1.109375 0q0 -0.421875 -0.359375 -0.75q-0.34375 -0.328125 -0.90625 -0.328125q-0.625 0 -0.921875 0.265625q-0.296875 0.265625 -0.296875 0.65625q0 0.375 0.265625 0.59375q0.265625 0.203125 1.078125 0.375q1.1875 0.265625 1.765625 0.703125q0.59375 0.4375 0.59375 1.1875q0 0.84375 -0.6875 1.375q-0.671875 0.515625 -1.765625 0.515625q-1.21875 0 -1.921875 -0.609375q-0.6875 -0.625 -0.65625 -1.4375l0.015625 -0.046875l1.09375 0q0.03125 0.625 0.453125 0.90625q0.4375 0.28125 1.015625 0.28125q0.609375 0 0.953125 -0.25q0.359375 -0.25 0.359375 -0.65625zm5.2128906 1.8125q-1.328125 0 -2.109375 -0.875q-0.78125 -0.890625 -0.78125 -2.296875l0 -0.265625q0 -1.34375 0.796875 -2.234375q0.8125 -0.90625 1.921875 -0.90625q1.28125 0 1.9375 0.78125q0.65625 0.765625 0.65625 2.046875l0 0.71875l-4.109375 0l-0.015625 0.03125q0.015625 0.921875 0.453125 1.515625q0.453125 0.578125 1.25 0.578125q0.59375 0 1.03125 -0.15625q0.4375 -0.171875 0.765625 -0.46875l0.453125 0.75q-0.34375 0.328125 -0.90625 0.5625q-0.546875 0.21875 -1.34375 0.21875zm-0.171875 -5.671875q-0.578125 0 -1.0 0.484375q-0.40625 0.484375 -0.5 1.234375l0.015625 0.03125l2.921875 0l0 -0.15625q0 -0.6875 -0.359375 -1.140625q-0.359375 -0.453125 -1.078125 -0.453125zm3.6269531 2.5q0 -1.53125 0.640625 -2.46875q0.65625 -0.9375 1.84375 -0.9375q0.546875 0 0.984375 0.203125q0.4375 0.203125 0.734375 0.59375l0 -3.484375l1.15625 0l0 9.140625l-0.9375 0l-0.140625 -0.78125q-0.3125 0.453125 -0.765625 0.6875q-0.453125 0.21875 -1.046875 0.21875q-1.15625 0 -1.8125 -0.84375q-0.65625 -0.84375 -0.65625 -2.21875l0 -0.109375zm1.15625 0.109375q0 0.96875 0.390625 1.546875q0.390625 0.578125 1.21875 0.578125q0.515625 0 0.859375 -0.234375q0.359375 -0.234375 0.578125 -0.65625l0 -2.96875q-0.21875 -0.390625 -0.578125 -0.609375q-0.359375 -0.234375 -0.84375 -0.234375q-0.84375 0 -1.234375 0.6875q-0.390625 0.671875 -0.390625 1.78125l0 0.109375zm8.662109 -0.109375q0 -1.53125 0.65625 -2.46875q0.671875 -0.9375 1.84375 -0.9375q0.609375 0 1.0625 0.25q0.46875 0.234375 0.765625 0.6875l0.140625 -0.828125l0.921875 0l0 6.375q0 1.21875 -0.71875 1.875q-0.703125 0.65625 -2.03125 0.65625q-0.46875 0 -1.0 -0.125q-0.515625 -0.125 -0.921875 -0.34375l0.28125 -0.890625q0.3125 0.171875 0.75 0.28125q0.453125 0.109375 0.875 0.109375q0.84375 0 1.21875 -0.390625q0.390625 -0.375 0.390625 -1.171875l0 -0.71875q-0.3125 0.40625 -0.75 0.609375q-0.421875 0.203125 -0.984375 0.203125q-1.171875 0 -1.84375 -0.84375q-0.65625 -0.84375 -0.65625 -2.21875l0 -0.109375zm1.140625 0.109375q0 0.96875 0.40625 1.546875q0.40625 0.578125 1.234375 0.578125q0.515625 0 0.859375 -0.234375q0.359375 -0.25 0.59375 -0.671875l0 -2.921875q-0.21875 -0.40625 -0.578125 -0.640625q-0.359375 -0.234375 -0.859375 -0.234375q-0.828125 0 -1.25 0.6875q-0.40625 0.6875 -0.40625 1.78125l0 0.109375zm8.9296875 -2.390625l-0.59375 -0.03125q-0.453125 0 -0.78125 0.21875q-0.3125 0.21875 -0.46875 0.609375l0 4.53125l-1.15625 0l0 -6.34375l1.03125 0l0.109375 0.921875q0.265625 -0.484375 0.65625 -0.75q0.40625 -0.28125 0.921875 -0.28125q0.125 0 0.234375 0.015625q0.125 0.015625 0.203125 0.046875l-0.15625 1.0625zm0.83203125 2.09375q0 -1.40625 0.765625 -2.3125q0.765625 -0.90625 2.078125 -0.90625q1.3125 0 2.078125 0.90625q0.765625 0.90625 0.765625 2.3125l0 0.140625q0 1.40625 -0.765625 2.3125q-0.765625 0.90625 -2.078125 0.90625q-1.3125 0 -2.078125 -0.90625q-0.765625 -0.90625 -0.765625 -2.3125l0 -0.140625zm1.15625 0.140625q0 1.0 0.421875 1.65625q0.4375 0.65625 1.265625 0.65625q0.828125 0 1.25 -0.65625q0.4375 -0.65625 0.4375 -1.65625l0 -0.140625q0 -0.984375 -0.4375 -1.640625q-0.421875 -0.671875 -1.25 -0.671875q-0.828125 0 -1.265625 0.671875q-0.421875 0.65625 -0.421875 1.640625l0 0.140625zm9.9609375 2.15625q-0.296875 0.515625 -0.765625 0.796875q-0.46875 0.265625 -1.078125 0.265625q-1.046875 0 -1.625 -0.65625q-0.578125 -0.671875 -0.578125 -2.078125l0 -3.734375l1.15625 0l0 3.75q0 1.015625 0.296875 1.40625q0.296875 0.375 0.9375 0.375q0.609375 0 1.015625 -0.25q0.40625 -0.25 0.609375 -0.703125l0 -4.578125l1.15625 0l0 6.34375l-1.046875 0l-0.078125 -0.9375zm8.1953125 -2.0q0 1.375 -0.65625 2.21875q-0.65625 0.84375 -1.796875 0.84375q-0.59375 0 -1.046875 -0.1875q-0.4375 -0.203125 -0.734375 -0.59375l0 3.09375l-1.15625 0l0 -8.78125l0.875 0l0.1875 0.828125q0.3125 -0.46875 0.765625 -0.703125q0.46875 -0.234375 1.078125 -0.234375q1.1875 0 1.828125 0.9375q0.65625 0.921875 0.65625 2.46875l0 0.109375zm-1.140625 -0.109375q0 -1.078125 -0.4375 -1.765625q-0.421875 -0.703125 -1.25 -0.703125q-0.5 0 -0.859375 0.234375q-0.34375 0.21875 -0.546875 0.609375l0 3.0625q0.203125 0.390625 0.546875 0.609375q0.359375 0.21875 0.875 0.21875q0.828125 0 1.25 -0.59375q0.421875 -0.609375 0.421875 -1.5625l0 -0.109375zm6.2578125 1.359375q0 -0.375 -0.296875 -0.625q-0.296875 -0.25 -1.09375 -0.421875q-1.15625 -0.25 -1.75 -0.671875q-0.578125 -0.4375 -0.578125 -1.1875q0 -0.78125 0.65625 -1.3125q0.65625 -0.546875 1.71875 -0.546875q1.109375 0 1.75 0.5625q0.65625 0.5625 0.625 1.390625l0 0.03125l-1.109375 0q0 -0.421875 -0.359375 -0.75q-0.34375 -0.328125 -0.90625 -0.328125q-0.625 0 -0.921875 0.265625q-0.296875 0.265625 -0.296875 0.65625q0 0.375 0.265625 0.59375q0.265625 0.203125 1.078125 0.375q1.1875 0.265625 1.765625 0.703125q0.59375 0.4375 0.59375 1.1875q0 0.84375 -0.6875 1.375q-0.671875 0.515625 -1.765625 0.515625q-1.21875 0 -1.921875 -0.609375q-0.6875 -0.625 -0.65625 -1.4375l0.015625 -0.046875l1.09375 0q0.03125 0.625 0.453125 0.90625q0.4375 0.28125 1.015625 0.28125q0.609375 0 0.953125 -0.25q0.359375 -0.25 0.359375 -0.65625z" fill-rule="nonzero"></path><path fill="#ff9900" d="m303.92914 139.17061l0 0c0 -26.509674 21.490326 -48.000008 48.0 -48.000008c26.509674 0 48.0 21.490334 48.0 48.000008c0 26.509659 -21.490326 48.0 -48.0 48.0c-26.509674 0 -48.0 -21.490341 -48.0 -48.0z" fill-rule="nonzero"></path><path fill="#cb7a00" d="m331.55136 124.81505c0 -2.7614212 2.2385864 -5.0 5.0 -5.0c2.7614136 0 5.0 2.2385788 5.0 5.0c0 2.7614212 -2.2385864 5.0 -5.0 5.0c-2.7614136 0 -5.0 -2.2385788 -5.0 -5.0m30.755554 0c0 -2.7614212 2.2385864 -5.0 5.0 -5.0c2.7614136 0 5.0 2.2385788 5.0 5.0c0 2.7614212 -2.2385864 5.0 -5.0 5.0c-2.7614136 0 -5.0 -2.2385788 -5.0 -5.0" fill-rule="nonzero"></path><path fill="#000000" fill-opacity="0.0" d="m325.9128 160.10373q26.016327 17.867508 51.971893 0" fill-rule="nonzero"></path><path fill="#000000" fill-opacity="0.0" d="m303.92914 139.17061l0 0c0 -26.509674 21.490326 -48.000008 48.0 -48.000008c26.509674 0 48.0 21.490334 48.0 48.000008c0 26.509659 -21.490326 48.0 -48.0 48.0c-26.509674 0 -48.0 -21.490341 -48.0 -48.0z" fill-rule="nonzero"></path><path stroke="#000000" stroke-width="1.0" stroke-linejoin="round" stroke-linecap="butt" stroke-dasharray="1.0,3.0" d="m331.55136 124.81505c0 -2.7614212 2.2385864 -5.0 5.0 -5.0c2.7614136 0 5.0 2.2385788 5.0 5.0c0 2.7614212 -2.2385864 5.0 -5.0 5.0c-2.7614136 0 -5.0 -2.2385788 -5.0 -5.0m30.755554 0c0 -2.7614212 2.2385864 -5.0 5.0 -5.0c2.7614136 0 5.0 2.2385788 5.0 5.0c0 2.7614212 -2.2385864 5.0 -5.0 5.0c-2.7614136 0 -5.0 -2.2385788 -5.0 -5.0" fill-rule="nonzero"></path><path stroke="#000000" stroke-width="1.0" stroke-linejoin="round" stroke-linecap="butt" stroke-dasharray="1.0,3.0" d="m325.9128 160.10373q26.016327 17.867508 51.971893 0" fill-rule="nonzero"></path><path stroke="#000000" stroke-width="1.0" stroke-linejoin="round" stroke-linecap="butt" stroke-dasharray="1.0,3.0" d="m303.92914 139.17061l0 0c0 -26.509674 21.490326 -48.000008 48.0 -48.000008c26.509674 0 48.0 21.490334 48.0 48.000008c0 26.509659 -21.490326 48.0 -48.0 48.0c-26.509674 0 -48.0 -21.490341 -48.0 -48.0z" fill-rule="nonzero"></path><path fill="#ff9900" d="m512.8898 340.4908l0 0c0 -26.509674 21.490295 -48.0 48.0 -48.0c26.509644 0 48.0 21.490326 48.0 48.0c0 26.509674 -21.490356 48.0 -48.0 48.0c-26.509705 0 -48.0 -21.490326 -48.0 -48.0z" fill-rule="nonzero"></path><path fill="#cb7a00" d="m540.51196 326.13525c0 -2.7614136 2.2385864 -5.0 5.0 -5.0c2.7614746 0 5.0 2.2385864 5.0 5.0c0 2.7614136 -2.2385254 5.0 -5.0 5.0c-2.7614136 0 -5.0 -2.2385864 -5.0 -5.0m30.755554 0c0 -2.7614136 2.2385864 -5.0 5.0 -5.0c2.7614746 0 5.0 2.2385864 5.0 5.0c0 2.7614136 -2.2385254 5.0 -5.0 5.0c-2.7614136 0 -5.0 -2.2385864 -5.0 -5.0" fill-rule="nonzero"></path><path fill="#000000" fill-opacity="0.0" d="m534.8735 361.42392q26.016296 17.867523 51.971863 0" fill-rule="nonzero"></path><path fill="#000000" fill-opacity="0.0" d="m512.8898 340.4908l0 0c0 -26.509674 21.490295 -48.0 48.0 -48.0c26.509644 0 48.0 21.490326 48.0 48.0c0 26.509674 -21.490356 48.0 -48.0 48.0c-26.509705 0 -48.0 -21.490326 -48.0 -48.0z" fill-rule="nonzero"></path><path stroke="#000000" stroke-width="1.0" stroke-linejoin="round" stroke-linecap="butt" stroke-dasharray="1.0,3.0" d="m540.51196 326.13525c0 -2.7614136 2.2385864 -5.0 5.0 -5.0c2.7614746 0 5.0 2.2385864 5.0 5.0c0 2.7614136 -2.2385254 5.0 -5.0 5.0c-2.7614136 0 -5.0 -2.2385864 -5.0 -5.0m30.755554 0c0 -2.7614136 2.2385864 -5.0 5.0 -5.0c2.7614746 0 5.0 2.2385864 5.0 5.0c0 2.7614136 -2.2385254 5.0 -5.0 5.0c-2.7614136 0 -5.0 -2.2385864 -5.0 -5.0" fill-rule="nonzero"></path><path stroke="#000000" stroke-width="1.0" stroke-linejoin="round" stroke-linecap="butt" stroke-dasharray="1.0,3.0" d="m534.8735 361.42392q26.016296 17.867523 51.971863 0" fill-rule="nonzero"></path><path stroke="#000000" stroke-width="1.0" stroke-linejoin="round" stroke-linecap="butt" stroke-dasharray="1.0,3.0" d="m512.8898 340.4908l0 0c0 -26.509674 21.490295 -48.0 48.0 -48.0c26.509644 0 48.0 21.490326 48.0 48.0c0 26.509674 -21.490356 48.0 -48.0 48.0c-26.509705 0 -48.0 -21.490326 -48.0 -48.0z" fill-rule="nonzero"></path></g></svg>

